mastitorrents.com
 
http://mastitorrents.com/forums/index.php

General 
Complete name : Pornstars Punishment - Angelina Valentine - The Fan Bang .wmv 
Format : Windows Media 
File size : 475 MiB 
Duration : 27mn 43s 
Overall bit rate : 2 394 Kbps 
Maximum Overall bit rate : 2 364 Kbps 
Encoded date : UTC 1970-01-01 00:00:00.000 

Video 
ID : 1 
Format : WMV2 
Codec ID : WMV2 
Codec ID/Info : Windows Media Video 8 
Description of the codec : wmv2 
Duration : 27mn 43s 
Bit rate : 2 226 Kbps 
Width : 768 pixels 
Height : 432 pixels 
Display aspect ratio : 16:9 
Frame rate : 29.970 fps 
Bit depth : 8 bits 
Bits/(Pixel*Frame) : 0.224 
Stream size : 441 MiB (93%) 

Audio 
ID : 2 
Format : WMA 
Format version : Version 2 
Codec ID : 161 
Codec ID/Info : Windows Media Audio 
Description of the codec : Windows Media Audio V8 
Duration : 27mn 43s 
Bit rate : 64.0 Kbps 
Channel(s) : 2 channels 
Sampling rate : 48.0 KHz 
Bit depth : 16 bits 
Stream size : 12.7 MiB (3%)